#extradata 0:       39, 0xbce50b14
#tb 0: 1/90000
#media_type 0: video
#codec_id 0: h264
#dimensions 0: 320x180
#sar 0: 1/1
0,      -6000,          0,     3000,    15434, 0xaeea92d6, S=1, MPEGTS Stream ID,        1, 0x00e000e0
0,      -3000,      15000,     3000,     1195, 0xb42c338e, F=0x0, S=1, MPEGTS Stream ID,        1, 0x00e000e0
0,          0,       6000,     3000,       78, 0xcf8916d7, F=0x0, S=1, MPEGTS Stream ID,        1, 0x00e000e0
0,       3000,       3000,     3000,       56, 0x414d0f65, F=0x0, S=1, MPEGTS Stream ID,        1, 0x00e000e0
0,       6000,       9000,     3000,      191, 0x91844fe7, F=0x0, S=1, MPEGTS Stream ID,        1, 0x00e000e0
0,       9000,      12000,     3000,      470, 0x903acc64, F=0x0, S=1, MPEGTS Stream ID,        1, 0x00e000e0
0,      12000,      30000,     3000,     1675, 0xfb6622a4, F=0x0, S=1, MPEGTS Stream ID,        1, 0x00e000e0
0,      15000,      21000,     3000,      384, 0x4224a8c8, F=0x0, S=1, MPEGTS Stream ID,        1, 0x00e000e0
0,      18000,      18000,     3000,      345, 0x27868683, F=0x0, S=1, MPEGTS Stream ID,        1, 0x00e000e0
0,      21000,      24000,     3000,      248, 0xbb8361f2, F=0x0, S=1, MPEGTS Stream ID,        1, 0x00e000e0
0,      24000,      27000,     3000,      329, 0x85e599ed, F=0x0, S=1, MPEGTS Stream ID,        1, 0x00e000e0
0,      27000,      45000,     3000,     1606, 0xd6fe0916, F=0x0, S=1, MPEGTS Stream ID,        1, 0x00e000e0
0,      30000,      36000,     3000,      249, 0xef705c32, F=0x0, S=1, MPEGTS Stream ID,        1, 0x00e000e0
0,      33000,      33000,     3000,      292, 0x58e97170, F=0x0, S=1, MPEGTS Stream ID,        1, 0x00e000e0
0,      36000,      39000,     3000,      247, 0x1f265d8b, F=0x0, S=1, MPEGTS Stream ID,        1, 0x00e000e0
0,      39000,      42000,     3000,      224, 0xbc7b4dd8, F=0x0, S=1, MPEGTS Stream ID,        1, 0x00e000e0
0,      42000,      60000,     3000,     2032, 0xfd2fcd7c, F=0x0, S=1, MPEGTS Stream ID,        1, 0x00e000e0
0,      45000,      51000,     3000,      953, 0x6760b785, F=0x0, S=1, MPEGTS Stream ID,        1, 0x00e000e0
0,      48000,      48000,     3000,      208, 0xa26e4ea7, F=0x0, S=1, MPEGTS Stream ID,        1, 0x00e000e0
0,      51000,      54000,     3000,      147, 0x92552574, F=0x0, S=1, MPEGTS Stream ID,        1, 0x00e000e0
0,      54000,      57000,     3000,      226, 0xe7945780, F=0x0, S=1, MPEGTS Stream ID,        1, 0x00e000e0
0,      57000,      75000,     3000,     2306, 0xa7b75e9a, F=0x0, S=1, MPEGTS Stream ID,        1, 0x00e000e0
0,      60000,      66000,     3000,      350, 0x11e0935c, F=0x0, S=1, MPEGTS Stream ID,        1, 0x00e000e0
0,      63000,      63000,     3000,      238, 0x24ce5a43, F=0x0, S=1, MPEGTS Stream ID,        1, 0x00e000e0
0,      66000,      69000,     3000,      189, 0xd32f4930, F=0x0, S=1, MPEGTS Stream ID,        1, 0x00e000e0
0,      69000,      72000,     3000,      357, 0x76f19035, F=0x0, S=1, MPEGTS Stream ID,        1, 0x00e000e0
0,      72000,      87000,     3000,      870, 0x0a0b9475, F=0x0, S=1, MPEGTS Stream ID,        1, 0x00e000e0
0,      75000,      81000,     3000,      333, 0x51b188b2, F=0x0, S=1, MPEGTS Stream ID,        1, 0x00e000e0
0,      78000,      78000,     3000,      166, 0x78043865, F=0x0, S=1, MPEGTS Stream ID,        1, 0x00e000e0
0,      81000,      84000,     3000,      326, 0x8bff87f7, F=0x0, S=1, MPEGTS Stream ID,        1, 0x00e000e0
[FRAME]
[SIDE_DATA]
side_data_type=LCEVC NAL data
[/SIDE_DATA]
[SIDE_DATA]
side_data_type=H.26[45] User Data Unregistered SEI message
[/SIDE_DATA]
[/FRAME]
[FRAME]
[SIDE_DATA]
side_data_type=LCEVC NAL data
[/SIDE_DATA]
[/FRAME]
[FRAME]
[SIDE_DATA]
side_data_type=LCEVC NAL data
[/SIDE_DATA]
[/FRAME]
[FRAME]
[SIDE_DATA]
side_data_type=LCEVC NAL data
[/SIDE_DATA]
[/FRAME]
[FRAME]
[SIDE_DATA]
side_data_type=LCEVC NAL data
[/SIDE_DATA]
[/FRAME]
[FRAME]
[SIDE_DATA]
side_data_type=LCEVC NAL data
[/SIDE_DATA]
[/FRAME]
[FRAME]
[SIDE_DATA]
side_data_type=LCEVC NAL data
[/SIDE_DATA]
[/FRAME]
[FRAME]
[SIDE_DATA]
side_data_type=LCEVC NAL data
[/SIDE_DATA]
[/FRAME]
[FRAME]
[SIDE_DATA]
side_data_type=LCEVC NAL data
[/SIDE_DATA]
[/FRAME]
[FRAME]
[SIDE_DATA]
side_data_type=LCEVC NAL data
[/SIDE_DATA]
[/FRAME]
[FRAME]
[SIDE_DATA]
side_data_type=LCEVC NAL data
[/SIDE_DATA]
[/FRAME]
[FRAME]
[SIDE_DATA]
side_data_type=LCEVC NAL data
[/SIDE_DATA]
[/FRAME]
[FRAME]
[SIDE_DATA]
side_data_type=LCEVC NAL data
[/SIDE_DATA]
[/FRAME]
[FRAME]
[SIDE_DATA]
side_data_type=LCEVC NAL data
[/SIDE_DATA]
[/FRAME]
[FRAME]
[SIDE_DATA]
side_data_type=LCEVC NAL data
[/SIDE_DATA]
[/FRAME]
[FRAME]
[SIDE_DATA]
side_data_type=LCEVC NAL data
[/SIDE_DATA]
[/FRAME]
[FRAME]
[SIDE_DATA]
side_data_type=LCEVC NAL data
[/SIDE_DATA]
[/FRAME]
[FRAME]
[SIDE_DATA]
side_data_type=LCEVC NAL data
[/SIDE_DATA]
[/FRAME]
[FRAME]
[SIDE_DATA]
side_data_type=LCEVC NAL data
[/SIDE_DATA]
[/FRAME]
[FRAME]
[SIDE_DATA]
side_data_type=LCEVC NAL data
[/SIDE_DATA]
[/FRAME]
[FRAME]
[SIDE_DATA]
side_data_type=LCEVC NAL data
[/SIDE_DATA]
[/FRAME]
[FRAME]
[SIDE_DATA]
side_data_type=LCEVC NAL data
[/SIDE_DATA]
[/FRAME]
[FRAME]
[SIDE_DATA]
side_data_type=LCEVC NAL data
[/SIDE_DATA]
[/FRAME]
[FRAME]
[SIDE_DATA]
side_data_type=LCEVC NAL data
[/SIDE_DATA]
[/FRAME]
[FRAME]
[SIDE_DATA]
side_data_type=LCEVC NAL data
[/SIDE_DATA]
[/FRAME]
[FRAME]
[SIDE_DATA]
side_data_type=LCEVC NAL data
[/SIDE_DATA]
[/FRAME]
[FRAME]
[SIDE_DATA]
side_data_type=LCEVC NAL data
[/SIDE_DATA]
[/FRAME]
[FRAME]
[SIDE_DATA]
side_data_type=LCEVC NAL data
[/SIDE_DATA]
[/FRAME]
[FRAME]
[SIDE_DATA]
side_data_type=LCEVC NAL data
[/SIDE_DATA]
[/FRAME]
[FRAME]
[SIDE_DATA]
side_data_type=LCEVC NAL data
[/SIDE_DATA]
[/FRAME]
